<svg xmlns="http://www.w3.org/2000/svg" version="1.0" width="2594.000000pt" height="420.000000pt" viewBox="0 0 2594.000000 420.000000" preserveAspectRatio="xMidYMid meet">
<metadata>
Created by potrace 1.16, written by Peter Selinger 2001-2019
</metadata>
<g transform="translate(0.000000,420.000000) scale(0.100000,-0.100000)" fill="#000000" stroke="none">
<path d="M2165 3867 c-22 -12 -43 -26 -47 -32 -4 -5 -8 -6 -8 -1 0 5 -6 4 -12 -2 -7 -5 -41 -16 -75 -22 -35 -7 -63 -17 -63 -22 0 -6 -11 -7 -27 -4 -17 5 -29 3 -34 -6 -6 -9 -64 -13 -231 -15 -123 -2 -269 -4 -325 -6 -56 -1 -96 1 -90 5 7 4 -27 8 -75 8 -53 0 -90 4 -94 11 -4 7 -21 9 -45 5 -21 -3 -47 -2 -56 3 -10 5 -71 15 -135 21 -65 7 -118 17 -118 22 0 6 -13 8 -30 5 -16 -4 -30 -3 -30 2 0 5 -29 12 -65 16 -36 3 -67 11 -70 16 -11 16 -35 10 -35 -9 0 -10 -3 -22 -7 -26 -4 -4 -6 -23 -4 -43 2 -22 -2 -39 -11 -44 -17 -11 -17 -604 0 -659 6 -19 18 -84 27 -145 8 -60 17 -119 20 -130 3 -11 12 -51 21 -90 8 -38 19 -79 24 -90 5 -11 14 -46 20 -77 6 -32 15 -60 20 -63 4 -3 11 -24 15 -48 4 -23 13 -55 20 -72 8 -16 30 -75 50 -130 20 -55 40 -109 45 -120 5 -11 21 -49 36 -85 42 -103 72 -172 94 -212 11 -20 20 -44 20 -52 0 -9 5 -16 10 -16 6 0 9 -3 8 -7 -2 -10 34 -86 45 -94 7 -5 58 -97 104 -189 10 -19 24 -39 31 -43 6 -4 12 -13 12 -20 0 -22 230 -336 278 -380 12 -11 22 -26 22 -32 0 -6 64 -72 143 -147 166 -158 211 -198 225 -198 6 0 12 -3 14 -7 13 -31 268 -189 344 -213 22 -7 44 -17 51 -22 17 -14 96 -15 124 -2 242 114 325 164 467 282 65 54 240 220 272 258 179 213 278 342 305 398 6 12 32 54 58 94 26 40 47 75 47 78 0 3 12 25 28 48 35 52 127 239 202 411 12 28 28 64 35 80 35 77 138 365 155 430 7 28 16 55 20 60 4 6 13 39 20 75 7 36 16 70 20 75 5 6 14 46 20 90 7 44 16 85 21 90 4 6 8 20 9 30 0 23 5 58 21 170 15 102 23 603 10 630 -5 11 -13 51 -18 89 -6 49 -13 72 -26 80 -13 8 -19 8 -25 -1 -4 -6 -29 -14 -57 -18 -27 -3 -57 -9 -65 -12 -8 -3 -25 -5 -37 -4 -11 1 -24 -3 -28 -8 -3 -6 -22 -11 -41 -11 -19 0 -33 -3 -31 -7 3 -5 -15 -6 -39 -4 -24 1 -44 -1 -44 -6 0 -4 -20 -7 -45 -5 -30 3 -45 0 -45 -8 0 -9 -16 -10 -60 -5 -41 5 -60 4 -60 -4 0 -7 -31 -11 -87 -11 -49 0 -83 -4 -76 -8 6 -4 -21 -6 -60 -5 -40 2 -185 4 -323 6 -188 2 -256 6 -267 16 -9 7 -21 10 -27 6 -6 -4 -17 -1 -25 5 -8 7 -21 10 -30 7 -8 -4 -17 -2 -20 3 -3 4 -23 11 -45 15 -22 4 -40 11 -40 16 0 6 -4 7 -10 4 -5 -3 -10 -1 -10 6 0 6 -8 9 -20 6 -11 -3 -20 -1 -20 4 0 5 -7 9 -15 9 -8 0 -15 5 -15 11 0 5 -4 8 -9 4 -5 -3 -12 -1 -16 5 -10 17 -68 10 -110 -13z m127 -46 c107 -47 148 -61 218 -72 41 -7 81 -17 89 -23 19 -14 497 -20 636 -7 211 19 400 41 455 51 30 5 98 18 151 28 l96 19 11 -31 c19 -52 33 -301 26 -463 -4 -84 -10 -153 -13 -153 -3 0 -4 -23 -3 -50 2 -28 -1 -57 -7 -64 -6 -8 -11 -27 -11 -42 1 -42 -21 -177 -30 -189 -4 -5 -11 -34 -15 -62 -4 -29 -10 -53 -15 -53 -4 0 -5 -11 -2 -25 2 -14 0 -25 -5 -25 -5 0 -15 -31 -22 -70 -7 -38 -17 -72 -21 -75 -5 -3 -14 -31 -20 -63 -11 -54 -18 -73 -50 -147 -8 -16 -12 -36 -11 -42 1 -7 -3 -13 -9 -13 -5 0 -10 -7 -10 -16 0 -8 -5 -25 -12 -37 -7 -12 -12 -26 -13 -32 -1 -11 -19 -55 -41 -98 -8 -16 -12 -33 -8 -38 3 -5 0 -9 -5 -9 -6 0 -11 -6 -11 -14 0 -8 -6 -21 -14 -29 -8 -8 -14 -20 -13 -28 2 -16 -32 -88 -50 -107 -7 -7 -13 -20 -13 -28 0 -8 -4 -14 -9 -14 -5 0 -7 -9 -4 -20 3 -12 0 -20 -6 -20 -7 0 -10 -4 -7 -9 3 -5 -5 -20 -18 -34 -14 -15 -30 -42 -37 -62 -7 -19 -17 -35 -21 -35 -4 0 -7 -3 -6 -7 2 -14 -32 -83 -41 -83 -5 0 -14 -14 -20 -31 -6 -17 -24 -47 -40 -68 -17 -21 -35 -50 -40 -65 -6 -14 -15 -26 -21 -26 -5 0 -10 -5 -10 -12 0 -6 -11 -26 -25 -44 -14 -18 -25 -37 -25 -43 0 -6 -9 -15 -20 -21 -11 -6 -20 -17 -20 -25 0 -8 -9 -20 -20 -27 -11 -7 -20 -17 -20 -23 0 -5 -9 -18 -20 -30 -45 -47 -90 -103 -90 -113 0 -6 -4 -12 -10 -14 -5 -2 -67 -60 -138 -131 -71 -70 -132 -127 -136 -127 -4 0 -33 -23 -65 -50 -32 -28 -61 -50 -66 -50 -4 0 -32 -18 -62 -40 -29 -23 -53 -38 -53 -35 0 4 -13 -3 -29 -14 -16 -12 -34 -21 -40 -21 -6 0 -11 -4 -11 -10 0 -5 -23 -16 -51 -24 -28 -9 -58 -21 -66 -28 -18 -15 -121 -16 -131 -2 -4 6 -27 18 -51 28 -25 10 -57 26 -72 37 -15 10 -32 19 -38 19 -6 0 -11 5 -11 12 0 6 -3 8 -6 5 -4 -3 -18 3 -32 13 -13 11 -31 20 -38 20 -8 0 -14 4 -14 9 0 8 -64 51 -80 54 -3 1 -16 14 -28 29 -13 15 -29 28 -36 28 -7 0 -29 18 -51 39 -21 22 -41 39 -44 39 -9 -2 -156 145 -154 153 1 3 -20 27 -47 52 -28 26 -50 49 -50 52 0 2 -43 57 -95 122 -52 64 -95 123 -95 130 0 7 -4 13 -9 13 -10 0 -27 27 -56 88 -8 17 -20 32 -26 32 -5 0 -8 4 -5 9 4 5 3 11 -1 13 -10 4 -39 52 -59 96 -8 17 -18 32 -23 32 -4 0 -14 18 -21 40 -7 22 -17 40 -22 40 -4 0 -7 3 -6 8 1 9 -32 85 -41 92 -3 3 -19 32 -36 65 -16 33 -33 62 -37 65 -4 3 -9 17 -10 30 -2 14 -5 27 -8 30 -14 14 -39 73 -34 81 3 5 0 9 -5 9 -6 0 -11 7 -11 15 0 8 -4 15 -9 15 -5 0 -7 8 -4 19 2 10 -2 25 -10 33 -8 8 -18 29 -22 46 -3 18 -11 32 -16 32 -6 0 -7 5 -4 10 4 6 2 16 -3 23 -5 7 -15 33 -23 60 -7 26 -16 47 -19 47 -4 0 -12 24 -19 53 -8 28 -18 57 -23 64 -5 6 -8 17 -7 25 1 7 -3 26 -9 41 -7 16 -12 36 -12 46 0 9 -4 21 -9 27 -13 12 -33 92 -32 127 1 15 -4 27 -9 27 -6 0 -10 8 -8 18 1 9 0 22 -4 27 -3 6 -11 53 -18 105 -7 52 -16 104 -21 115 -9 22 -31 267 -34 385 -2 72 9 246 24 360 6 47 10 55 26 53 28 -3 179 -30 240 -43 47 -10 231 -31 440 -50 117 -11 524 -11 595 0 149 23 323 72 375 107 26 17 36 17 87 -6z"/>
<path d="M2200 3742 c0 -5 -18 -15 -40 -22 -22 -7 -40 -17 -40 -22 0 -5 -9 -6 -20 -3 -11 3 -20 2 -20 -3 0 -11 -99 -33 -142 -32 -16 0 -28 -5 -28 -11 0 -8 -17 -10 -59 -5 -35 4 -62 3 -65 -3 -3 -5 -2 -11 4 -13 6 -1 -138 -3 -319 -3 -214 0 -329 4 -328 10 1 6 -22 9 -58 7 -33 -1 -69 2 -80 7 -11 5 -63 14 -115 20 -52 7 -100 17 -107 22 -6 6 -22 8 -34 4 -12 -4 -24 -3 -28 3 -3 5 -25 13 -48 17 l-42 7 -7 -47 c-9 -64 3 -628 15 -690 44 -222 87 -402 101 -427 5 -10 14 -37 20 -60 13 -54 14 -57 28 -91 7 -16 12 -33 12 -39 0 -5 6 -24 14 -41 7 -18 19 -48 26 -67 7 -19 21 -54 31 -77 11 -24 19 -48 19 -53 0 -6 9 -28 19 -48 11 -20 30 -62 44 -92 45 -102 158 -325 188 -370 16 -25 33 -55 38 -67 6 -12 30 -50 54 -85 24 -35 46 -70 49 -78 6 -14 108 -145 196 -250 67 -80 276 -279 321 -304 9 -5 21 -14 27 -20 10 -10 57 -46 204 -158 27 -21 52 -38 56 -38 3 0 18 -8 32 -19 49 -34 102 -61 123 -61 11 0 34 7 52 16 39 20 162 100 198 128 14 12 38 30 54 41 15 11 57 44 91 73 35 28 68 52 73 52 30 0 461 463 461 495 0 4 23 38 50 76 28 38 50 73 50 78 0 6 6 14 13 18 7 4 18 19 25 33 6 14 27 52 46 85 19 33 41 71 48 85 7 14 15 27 18 30 7 6 43 84 41 88 -1 1 12 28 28 60 17 31 42 84 56 117 14 33 32 74 40 90 7 17 19 48 26 70 8 22 19 49 26 60 7 11 13 25 13 32 0 6 5 24 12 40 6 15 12 30 13 33 1 3 10 32 19 65 10 33 22 65 26 70 4 6 13 34 19 64 6 30 15 59 20 65 4 6 13 40 20 76 6 36 16 74 21 85 7 17 26 112 45 225 23 142 35 567 19 684 l-7 47 -46 -7 c-25 -4 -50 -9 -56 -13 -5 -3 -17 -4 -27 -3 -9 2 -19 -2 -23 -8 -3 -5 -20 -10 -36 -10 -17 0 -28 -3 -26 -7 5 -7 -33 -11 -135 -12 -20 0 -39 -5 -43 -11 -5 -8 -24 -9 -55 -5 -30 4 -50 3 -55 -4 -9 -15 -675 -15 -675 0 0 7 -16 8 -46 3 -26 -4 -49 -3 -53 3 -3 5 -42 15 -86 21 -44 7 -83 16 -88 21 -5 5 -16 7 -23 4 -8 -3 -14 0 -14 6 0 6 -8 11 -18 11 -10 0 -35 9 -57 20 -40 20 -95 27 -95 12z m90 -50 c19 -10 58 -25 85 -32 28 -7 55 -17 60 -21 6 -4 83 -17 172 -29 142 -19 198 -21 450 -17 275 4 560 25 608 46 18 8 127 31 147 31 4 0 8 -8 8 -18 0 -10 5 -23 10 -28 11 -11 8 -348 -4 -434 -4 -25 -11 -96 -17 -158 -6 -62 -15 -115 -20 -118 -5 -3 -9 -19 -9 -35 0 -29 -16 -108 -28 -139 -3 -8 -6 -22 -6 -30 -1 -8 -4 -19 -7 -25 -4 -5 -10 -30 -14 -55 -4 -25 -15 -63 -25 -85 -10 -22 -21 -57 -25 -77 -4 -21 -11 -38 -15 -38 -4 0 -11 -17 -15 -37 -4 -21 -13 -51 -20 -68 -7 -16 -19 -48 -26 -70 -6 -22 -15 -42 -18 -45 -3 -3 -12 -23 -19 -45 -27 -81 -225 -500 -240 -507 -4 -2 -16 -21 -27 -42 -34 -67 -49 -91 -87 -143 -21 -28 -38 -56 -38 -62 0 -6 -5 -11 -10 -11 -6 0 -15 -11 -20 -25 -5 -14 -17 -28 -25 -31 -8 -4 -15 -12 -15 -19 0 -7 -34 -51 -75 -98 -41 -48 -76 -90 -76 -94 -1 -4 -48 -51 -105 -103 -56 -52 -121 -112 -143 -132 -23 -21 -44 -38 -47 -38 -4 0 -32 -23 -64 -50 -32 -28 -61 -50 -65 -50 -3 0 -32 -21 -63 -46 -31 -26 -64 -49 -72 -52 -8 -3 -29 -16 -46 -29 -17 -13 -36 -23 -42 -23 -7 0 -12 -4 -12 -10 0 -17 -72 -24 -84 -8 -6 7 -26 20 -43 27 -18 7 -33 17 -33 22 0 4 -16 15 -35 24 -19 9 -39 23 -46 31 -6 8 -18 14 -25 14 -8 0 -19 9 -26 20 -7 11 -17 20 -22 20 -8 0 -63 43 -101 80 -12 11 -25 20 -31 20 -6 0 -64 51 -130 113 -65 63 -140 133 -166 157 -27 24 -48 49 -48 56 0 8 -11 21 -25 30 -14 9 -25 21 -25 26 0 5 -22 37 -50 71 -27 34 -50 66 -50 72 0 6 -9 16 -20 23 -11 7 -20 18 -20 26 0 8 -7 16 -15 20 -8 3 -15 10 -15 16 0 6 -16 33 -35 60 -19 28 -32 50 -28 50 5 0 4 4 -2 8 -11 8 -39 54 -57 95 -7 15 -16 27 -21 27 -4 0 -5 5 -2 10 3 6 2 10 -2 10 -5 0 -15 17 -22 38 -8 20 -17 39 -20 42 -13 11 -129 256 -151 320 -13 39 -27 72 -59 141 -12 25 -21 51 -21 57 0 6 -5 23 -12 39 -6 15 -12 30 -13 33 -1 3 -10 32 -19 65 -10 33 -22 65 -26 70 -4 6 -13 39 -20 75 -7 36 -16 70 -20 75 -11 15 -31 106 -30 138 0 15 -4 27 -9 27 -5 0 -14 46 -21 103 -7 56 -16 107 -21 113 -5 7 -10 25 -10 40 0 16 -3 148 -5 293 -4 166 -2 267 4 273 11 11 147 -8 167 -22 6 -5 60 -13 120 -19 61 -6 153 -16 205 -22 139 -16 626 -6 769 15 63 9 120 20 125 25 6 4 33 13 59 20 27 6 65 20 85 31 45 25 58 25 102 2z m-807 -79 c-13 -2 -33 -2 -45 0 -13 2 -3 4 22 4 25 0 35 -2 23 -4z m1555 0 c-10 -2 -26 -2 -35 0 -10 3 -2 5 17 5 19 0 27 -2 18 -5z"/>
<path d="M2200 3667 c-14 -6 -27 -14 -30 -18 -3 -3 -30 -12 -60 -18 -30 -7 -62 -15 -70 -18 -8 -3 -23 -5 -32 -4 -10 1 -18 -2 -18 -7 0 -18 -223 -32 -510 -32 -291 0 -580 16 -580 32 0 5 -12 8 -28 7 -15 0 -60 5 -99 12 -40 7 -76 9 -80 5 -5 -4 -8 -98 -8 -209 0 -217 5 -316 15 -332 4 -5 12 -59 20 -120 7 -60 16 -116 21 -125 4 -8 15 -49 24 -90 17 -86 51 -216 64 -245 5 -11 15 -42 22 -68 7 -27 20 -65 31 -85 10 -20 18 -44 18 -54 0 -9 4 -19 9 -22 5 -3 12 -18 16 -33 3 -15 15 -46 26 -70 10 -23 19 -44 19 -47 0 -3 13 -35 30 -71 16 -36 30 -70 30 -75 0 -6 4 -10 9 -10 5 0 12 -12 15 -27 6 -26 55 -132 66 -143 3 -3 13 -21 22 -40 10 -19 34 -62 53 -95 19 -33 38 -68 41 -77 4 -10 10 -18 15 -18 5 0 9 -5 9 -11 0 -6 23 -42 50 -80 28 -38 50 -72 50 -75 0 -19 182 -231 295 -343 112 -110 333 -301 350 -301 3 0 35 -23 70 -50 35 -28 67 -50 70 -50 4 0 22 -12 41 -26 43 -33 75 -28 147 23 29 21 60 43 69 48 38 24 157 113 208 155 30 25 61 50 70 57 90 69 389 385 408 433 3 7 27 43 54 78 26 36 48 71 48 78 0 8 4 14 9 14 5 0 16 12 24 28 8 15 24 45 36 66 11 22 24 42 28 45 14 10 233 459 233 477 0 4 8 26 19 48 10 23 25 61 34 86 29 87 47 135 56 150 4 8 14 40 21 70 8 30 17 60 21 65 4 6 12 37 19 70 7 33 16 65 20 70 4 6 13 42 19 80 7 39 15 77 19 85 7 19 7 21 27 150 10 65 19 205 22 364 l6 259 -74 -7 c-41 -4 -79 -12 -86 -18 -7 -5 -21 -7 -33 -3 -12 4 -26 2 -33 -3 -53 -43 -1077 -42 -1077 1 0 5 -13 7 -29 4 -15 -3 -32 -2 -37 2 -5 4 -31 14 -59 21 -27 8 -59 19 -70 26 -31 19 -78 24 -105 11z m145 -68 c131 -47 270 -66 545 -75 282 -9 517 7 779 52 50 8 89 10 94 5 5 -5 6 -90 3 -197 -7 -231 -15 -314 -28 -314 -7 0 -8 -17 -4 -45 4 -26 3 -45 -2 -45 -5 0 -12 -28 -16 -62 -3 -34 -11 -65 -17 -69 -7 -4 -9 -17 -5 -33 4 -16 2 -26 -5 -26 -6 0 -10 -10 -8 -22 2 -30 -11 -88 -21 -88 -4 0 -5 -11 -2 -25 2 -15 0 -25 -8 -25 -7 0 -9 -8 -5 -20 3 -11 2 -20 -3 -20 -5 0 -13 -20 -16 -45 -4 -25 -12 -45 -17 -45 -6 0 -7 -9 -4 -20 4 -12 2 -20 -5 -20 -7 0 -10 -7 -6 -15 3 -8 1 -15 -4 -15 -6 0 -10 -9 -10 -20 0 -11 -5 -20 -11 -20 -6 0 -8 -9 -4 -20 4 -11 2 -20 -4 -20 -6 0 -11 -9 -11 -19 0 -11 -7 -27 -16 -36 -9 -8 -13 -22 -10 -30 3 -8 0 -15 -5 -15 -6 0 -9 -9 -6 -20 3 -11 1 -20 -4 -20 -5 0 -9 -7 -9 -15 0 -8 -5 -15 -11 -15 -5 0 -8 -4 -5 -9 4 -5 0 -22 -8 -38 -23 -46 -40 -87 -38 -95 1 -5 -2 -8 -8 -8 -5 0 -10 -9 -10 -19 0 -11 -7 -27 -16 -35 -8 -9 -12 -20 -9 -26 3 -5 2 -10 -3 -10 -6 0 -13 -11 -16 -25 -4 -14 -11 -25 -16 -25 -5 0 -7 -7 -4 -15 4 -8 1 -15 -6 -15 -6 0 -8 -4 -5 -10 3 -5 1 -10 -4 -10 -6 0 -11 -7 -11 -15 0 -8 -5 -15 -11 -15 -5 0 -7 -4 -4 -10 3 -5 1 -10 -5 -10 -7 0 -10 -6 -8 -12 3 -7 -4 -21 -13 -32 -10 -10 -16 -23 -13 -28 3 -4 0 -8 -5 -8 -6 0 -11 -7 -11 -15 0 -9 -6 -18 -14 -21 -8 -3 -12 -12 -9 -20 3 -8 0 -14 -7 -14 -6 0 -8 -4 -5 -10 3 -5 1 -10 -5 -10 -6 0 -8 -5 -5 -10 4 -6 1 -9 -7 -8 -7 2 -12 -3 -10 -9 1 -7 -3 -13 -10 -13 -6 0 -8 -3 -5 -6 4 -4 -9 -28 -28 -54 -19 -26 -35 -52 -35 -58 0 -5 -7 -12 -15 -16 -8 -3 -15 -12 -15 -20 0 -9 -9 -20 -21 -26 -11 -7 -18 -17 -16 -25 3 -7 -6 -18 -20 -24 -14 -7 -23 -17 -20 -25 3 -8 -5 -19 -19 -27 -14 -7 -23 -18 -20 -25 3 -7 -6 -20 -20 -29 -14 -9 -22 -20 -19 -25 3 -5 0 -12 -6 -16 -8 -5 -9 -3 -4 7 7 12 6 12 -7 1 -9 -7 -19 -24 -23 -39 -3 -14 -9 -23 -12 -19 -8 8 -44 -24 -38 -35 3 -4 0 -11 -6 -15 -8 -5 -9 -3 -4 7 4 8 -1 5 -12 -6 -11 -11 -33 -33 -49 -49 -16 -16 -23 -26 -15 -21 10 5 12 4 7 -4 -4 -6 -11 -9 -16 -6 -4 3 -20 -9 -34 -26 -15 -17 -30 -29 -33 -25 -10 9 -43 -25 -36 -37 3 -6 1 -7 -5 -3 -6 4 -17 -2 -24 -14 -7 -11 -18 -20 -24 -20 -6 0 -21 -11 -34 -25 -13 -14 -29 -25 -36 -25 -7 0 -18 -9 -24 -20 -6 -11 -17 -20 -25 -20 -8 0 -20 -9 -27 -20 -7 -11 -19 -20 -26 -20 -7 0 -10 -5 -6 -12 5 -7 3 -8 -6 -3 -7 4 -16 2 -21 -6 -4 -8 -12 -14 -16 -14 -12 0 -94 -61 -89 -66 11 -11 -61 -7 -79 5 -11 7 -24 14 -30 15 -5 1 -14 9 -18 17 -4 8 -13 14 -18 14 -6 0 -7 -5 -3 -12 4 -7 3 -8 -4 -4 -6 4 -9 13 -5 21 3 11 1 13 -10 10 -8 -4 -17 1 -20 9 -4 10 -13 13 -23 9 -11 -4 -15 -2 -11 4 8 13 -25 44 -51 46 -12 0 -18 6 -15 14 3 7 -5 17 -18 22 -13 5 -32 18 -43 30 -10 11 -22 18 -26 16 -4 -3 -13 2 -20 10 -7 8 -16 12 -21 9 -17 -10 -9 5 13 26 13 12 17 20 8 20 -7 0 -19 -8 -27 -17 -10 -14 -13 -14 -11 -3 2 9 -4 14 -14 14 -11 -1 -14 4 -11 14 4 9 2 13 -4 9 -6 -4 -16 0 -23 8 -7 8 -17 12 -23 8 -5 -3 -8 -2 -5 3 8 12 -17 35 -28 26 -4 -4 -4 -2 -1 4 8 14 -98 118 -112 110 -5 -4 -15 3 -21 15 -10 17 -9 20 2 14 7 -4 -3 6 -22 23 -19 17 -31 31 -26 32 5 0 1 9 -9 20 -10 11 -22 17 -28 13 -6 -3 -7 -1 -3 5 4 7 2 12 -4 12 -6 0 -15 11 -20 25 -5 14 -17 28 -25 31 -8 4 -15 12 -15 19 0 6 -9 20 -20 30 -11 10 -17 22 -13 28 4 6 0 8 -11 4 -10 -4 -15 -3 -11 3 3 6 1 10 -5 10 -7 0 -10 7 -6 15 3 8 1 15 -5 15 -5 0 -14 11 -19 25 -5 14 -14 25 -20 25 -5 0 -10 7 -10 15 0 9 -7 18 -15 21 -8 4 -12 10 -9 15 3 5 -6 19 -19 31 -13 13 -22 29 -20 36 3 6 0 12 -7 12 -6 0 -16 14 -21 30 -6 17 -15 30 -21 30 -6 0 -8 7 -4 15 3 8 1 15 -5 15 -6 0 -8 4 -5 9 3 5 -6 21 -19 35 -14 15 -25 31 -25 37 0 5 -5 9 -12 9 -6 0 -8 3 -5 7 4 3 2 12 -4 20 -6 7 -8 13 -5 13 4 0 -2 10 -13 22 -11 11 -18 25 -15 30 3 4 1 8 -4 8 -5 0 -9 13 -9 29 0 16 -7 37 -16 46 -10 9 -17 21 -17 26 0 6 -7 18 -16 26 -8 9 -13 24 -11 34 3 11 1 19 -4 19 -5 0 -9 7 -9 15 0 8 -5 15 -11 15 -5 0 -7 5 -4 10 3 6 1 10 -6 10 -6 0 -9 8 -6 20 3 11 1 20 -3 20 -9 0 -25 40 -22 53 1 4 -3 7 -9 7 -6 0 -9 9 -6 20 3 11 1 20 -4 20 -5 0 -9 7 -9 15 0 8 -9 32 -20 52 -11 21 -20 45 -20 55 0 9 -5 20 -11 23 -6 4 -8 13 -5 20 3 8 0 15 -5 17 -6 2 -11 23 -12 46 -1 27 -7 42 -15 42 -9 0 -11 7 -7 20 4 12 2 20 -5 20 -7 0 -10 7 -7 15 4 8 2 17 -2 20 -5 3 -12 28 -16 55 -4 28 -11 50 -17 50 -6 0 -7 11 -4 25 4 14 2 25 -3 25 -10 0 -22 51 -21 92 0 15 -4 30 -10 33 -6 4 -8 21 -4 41 4 20 2 34 -4 34 -19 0 -32 154 -35 418 l-2 204 30 -7 c104 -22 309 -46 487 -56 385 -22 761 12 933 84 33 13 67 23 75 20 8 -3 51 -18 95 -34z"/>
<path d="M2075 3438 c-33 -5 -64 -13 -70 -18 -5 -4 -25 -11 -44 -15 -47 -10 -162 -69 -185 -94 -11 -12 -25 -21 -31 -21 -18 0 -202 -195 -224 -238 -57 -108 -80 -165 -87 -220 -4 -29 -11 -55 -15 -58 -11 -7 -12 -267 -1 -279 5 -6 14 -41 21 -79 7 -38 19 -78 27 -90 7 -11 14 -27 14 -35 0 -29 87 -143 176 -228 93 -91 119 -113 129 -113 3 0 24 -12 48 -27 76 -50 134 -73 208 -84 41 -6 82 -15 91 -20 24 -12 215 -11 223 1 3 6 19 10 35 10 71 0 183 39 267 93 24 15 45 27 48 27 19 0 171 147 220 212 24 32 56 84 72 115 15 32 31 59 35 61 3 2 12 35 19 75 6 40 16 76 21 82 11 12 10 272 -1 279 -5 3 -12 29 -15 58 -4 30 -23 84 -42 123 -20 39 -41 80 -48 92 -6 13 -14 23 -18 23 -5 0 -8 6 -8 14 0 18 -179 206 -195 206 -7 0 -20 9 -31 21 -22 25 -148 86 -195 95 -19 4 -39 10 -44 15 -34 26 -277 37 -400 17z m280 -26 c6 -5 41 -14 80 -21 38 -7 74 -16 80 -20 5 -5 34 -16 63 -26 28 -11 52 -23 52 -27 0 -4 5 -8 11 -8 6 0 30 -16 53 -35 24 -19 46 -35 50 -35 12 0 106 -92 106 -104 0 -6 9 -17 20 -24 11 -7 20 -17 20 -23 0 -5 16 -31 34 -55 19 -25 40 -62 47 -82 6 -20 17 -44 24 -52 7 -8 16 -35 20 -60 4 -25 12 -51 18 -58 15 -18 14 -286 -1 -304 -6 -8 -14 -33 -18 -56 -3 -23 -13 -47 -20 -53 -8 -6 -14 -17 -14 -25 0 -20 -33 -88 -47 -97 -7 -4 -13 -13 -13 -19 0 -36 -176 -215 -245 -248 -16 -8 -36 -21 -43 -27 -7 -7 -19 -13 -26 -13 -7 0 -24 -8 -37 -18 -13 -10 -46 -24 -74 -31 -27 -7 -61 -18 -74 -24 -34 -17 -336 -16 -352 0 -7 7 -22 13 -33 13 -25 0 -88 22 -107 36 -8 6 -32 20 -54 31 -94 47 -110 59 -174 122 -131 130 -200 232 -217 321 -4 19 -11 37 -15 40 -5 3 -13 49 -19 102 -11 100 -1 268 18 304 6 11 16 39 23 64 7 25 28 68 46 96 18 28 33 56 33 63 0 6 7 11 15 11 8 0 15 6 15 13 0 16 128 157 142 157 6 0 30 16 54 35 23 19 47 35 53 35 6 0 11 3 11 8 0 4 21 15 48 25 26 10 58 24 72 32 14 7 53 16 88 20 34 4 65 11 68 16 7 11 207 12 219 1z"/>
<path d="M2197 3383 c-4 -3 -7 -17 -7 -30 0 -29 -12 -30 -25 0 -6 12 -17 22 -25 22 -11 0 -16 -14 -18 -57 -3 -50 -6 -58 -22 -58 -11 0 -20 7 -20 15 0 8 7 15 15 15 8 0 15 7 15 16 0 11 -6 15 -20 11 -13 -3 -20 0 -20 9 0 8 5 14 10 14 6 0 10 9 10 20 0 21 -15 27 -25 10 -3 -5 -14 -10 -24 -10 -16 0 -17 -5 -11 -42 5 -24 6 -45 4 -47 -2 -2 -4 1 -4 7 0 7 -9 12 -19 12 -27 0 -34 15 -16 34 18 18 7 27 -23 19 -17 -4 -22 -13 -22 -40 0 -29 5 -36 30 -44 31 -11 41 -29 15 -29 -17 0 -20 -16 -5 -25 20 -13 50 6 50 31 0 15 4 23 10 19 6 -4 8 -11 5 -16 -10 -15 26 -23 46 -11 10 7 28 12 39 12 11 0 20 6 20 13 0 8 2 9 8 1 4 -7 28 -9 65 -6 51 4 57 7 57 27 0 16 7 24 26 28 24 4 25 3 19 -29 -5 -31 -4 -34 20 -34 14 0 25 -4 25 -10 0 -17 42 -11 56 8 12 16 13 16 14 -4 0 -12 7 -25 16 -28 24 -9 30 2 15 26 -11 17 -10 23 8 42 21 22 28 61 14 69 -5 3 -22 8 -39 11 -30 7 -31 6 -44 -49 -10 -41 -17 -54 -28 -50 -7 3 -16 5 -18 5 -2 0 -4 7 -4 15 0 8 9 15 20 15 25 0 26 18 3 36 -17 12 -16 13 5 14 15 0 22 6 22 20 0 16 -7 20 -30 20 -20 0 -30 -5 -30 -15 0 -8 -4 -15 -10 -15 -5 0 -10 6 -10 14 0 16 -53 31 -70 21 -5 -3 -10 -24 -10 -46 0 -24 -4 -38 -10 -34 -5 3 -10 19 -10 34 0 36 -25 62 -43 44z m120 -39 c-3 -3 -12 -4 -19 -1 -8 3 -5 6 6 6 11 1 17 -2 13 -5z"/>
<path d="M2564 3306 c-7 -7 -15 -40 -19 -74 -7 -58 -6 -62 14 -62 11 0 24 6 28 14 4 7 24 26 43 42 l35 29 -38 -46 c-35 -43 -48 -79 -28 -79 8 0 68 69 85 99 6 9 -1 21 -19 35 l-28 23 -28 -29 -27 -29 5 39 c6 42 -5 58 -23 38z"/>
<path d="M1837 3272 c-29 -31 -15 -72 24 -72 9 0 22 -7 29 -15 11 -13 8 -15 -13 -15 -24 0 -67 33 -67 52 0 4 -9 8 -20 8 -30 0 -24 -27 12 -60 17 -16 28 -33 24 -37 -4 -5 -21 9 -38 30 -31 38 -58 49 -58 22 0 -22 70 -95 91 -95 20 0 54 43 46 57 -3 5 7 9 21 8 23 0 27 5 30 32 3 28 0 32 -27 38 -31 7 -39 19 -21 30 10 6 3 35 -10 35 -4 0 -14 -8 -23 -18z"/>
<path d="M2668 3177 c-42 -44 -50 -72 -19 -64 15 3 21 -1 23 -16 4 -24 28 -36 28 -13 0 9 14 28 30 43 31 27 39 60 18 81 -20 20 -41 12 -80 -31z"/>
<path d="M2125 3203 c-16 -3 -34 -8 -40 -13 -5 -4 -23 -10 -40 -14 -72 -16 -158 -71 -231 -149 -41 -43 -77 -90 -80 -103 -3 -13 -10 -24 -14 -24 -4 0 -15 -26 -24 -57 -10 -32 -22 -68 -28 -80 -14 -28 -14 -227 -1 -256 6 -12 16 -40 22 -62 17 -55 61 -145 72 -145 5 0 9 -6 9 -12 0 -12 106 -118 118 -118 3 0 19 -11 36 -24 17 -12 49 -29 71 -37 22 -8 42 -17 45 -20 8 -10 142 -29 208 -29 62 0 170 17 187 29 6 4 33 16 60 26 58 21 112 57 174 114 44 41 54 55 88 121 10 19 20 37 23 40 3 3 12 25 19 50 7 25 18 54 23 64 13 25 14 246 1 255 -6 3 -13 22 -17 42 -13 74 -67 162 -150 245 -63 63 -89 83 -118 88 -21 4 -38 10 -38 15 0 4 -19 14 -42 21 -24 8 -49 18 -56 23 -14 11 -228 18 -277 10z m335 -70 c36 -17 70 -32 75 -34 13 -4 21 -10 78 -60 65 -57 135 -153 143 -195 3 -18 10 -34 14 -34 11 0 30 -115 30 -178 0 -64 -16 -145 -40 -197 -10 -22 -20 -47 -24 -55 -11 -27 -72 -106 -102 -133 -77 -69 -132 -101 -219 -127 -22 -7 -48 -16 -57 -21 -23 -12 -215 -12 -222 0 -3 4 -23 11 -44 14 -43 7 -154 60 -172 82 -7 8 -17 15 -23 15 -12 0 -87 72 -87 84 0 4 -13 25 -30 46 -16 21 -30 41 -30 45 0 5 -11 32 -25 61 -32 67 -43 192 -26 290 7 38 16 73 20 79 5 5 14 27 21 48 10 33 16 38 34 33 11 -3 26 -6 32 -6 7 0 14 -9 17 -20 4 -17 1 -19 -19 -14 -21 5 -24 3 -24 -23 0 -30 31 -69 43 -56 4 3 7 1 7 -5 0 -7 10 -12 22 -12 l21 0 -21 -23 c-37 -39 -29 -47 51 -47 41 0 77 -3 80 -7 4 -3 -1 -15 -10 -25 -11 -13 -19 -45 -24 -96 -3 -42 -7 -67 -7 -54 -1 12 -6 22 -12 22 -5 0 -10 9 -10 19 0 21 -53 71 -76 71 -17 0 -18 -22 -2 -38 9 -9 8 -18 -2 -37 -11 -21 -12 -30 -2 -45 7 -11 12 -28 12 -38 0 -10 11 -29 25 -42 26 -24 35 -83 15 -95 -17 -11 -11 -64 10 -85 41 -41 103 -32 65 9 -9 10 -17 38 -18 62 l-2 44 35 -3 c19 -2 65 -4 103 -5 56 -2 67 -5 67 -19 0 -19 -23 -45 -56 -64 -14 -8 -20 -24 -22 -63 l-3 -51 175 0 176 0 0 48 c0 27 -3 52 -7 56 -4 4 -6 38 -4 76 3 77 -1 90 -27 83 -16 -4 -18 -13 -14 -65 4 -48 2 -60 -9 -56 -15 5 -37 151 -37 243 0 41 1 45 8 23 11 -37 49 -88 65 -88 7 0 15 -4 17 -9 5 -14 98 -26 98 -12 0 6 -22 41 -50 76 -27 35 -50 67 -50 70 0 31 125 -105 135 -148 6 -23 4 -29 -14 -34 -24 -6 -29 -23 -6 -23 12 0 15 -13 15 -60 0 -33 4 -60 10 -60 6 0 10 31 10 72 0 53 4 76 17 90 9 10 18 41 21 71 3 47 1 55 -25 79 -15 14 -39 28 -53 31 -14 2 13 5 59 6 73 1 90 5 127 28 37 24 44 34 50 71 4 24 4 46 1 49 -3 3 -23 2 -43 -2 -27 -5 -51 -20 -82 -53 -28 -30 -37 -36 -24 -17 20 30 39 165 24 165 -17 0 -81 -68 -87 -93 -10 -38 -25 -33 -25 8 0 19 5 35 10 35 6 0 10 7 10 15 0 19 0 19 -41 -2 -19 -10 -44 -16 -57 -14 -35 4 -97 -65 -108 -120 l-8 -44 -4 40 c-2 22 -8 44 -13 49 -14 16 -11 63 6 70 10 3 15 19 15 44 0 25 8 49 22 67 26 33 29 102 6 160 -14 35 -20 40 -44 37 -15 -2 -38 2 -50 9 -19 10 -29 10 -47 0 -13 -7 -34 -11 -47 -9 -24 3 -31 -5 -50 -65 -14 -46 -6 -101 21 -135 11 -14 19 -40 19 -62 0 -29 -7 -42 -34 -66 -18 -17 -37 -40 -40 -52 -10 -30 -58 -30 -86 0 -21 23 -13 37 20 38 8 0 34 20 58 44 30 32 42 53 42 74 0 40 -9 62 -26 62 -8 0 -14 5 -14 10 0 14 -64 12 -78 -2 -20 -20 -14 -58 11 -68 18 -7 13 -9 -26 -9 -33 -1 -57 -8 -74 -21 -35 -27 -51 -26 -45 5 3 18 11 25 27 25 30 0 54 27 31 36 -9 3 -16 13 -16 20 0 8 -8 18 -17 21 -10 4 -23 13 -29 21 -14 19 -34 7 -34 -21 0 -16 -3 -18 -12 -9 -9 9 -1 23 37 62 27 27 63 57 79 65 17 9 42 22 56 30 91 48 123 55 275 51 122 -2 134 -4 195 -33z m-203 -49 c-3 -3 -12 -4 -19 -1 -8 3 -5 6 6 6 11 1 17 -2 13 -5z m-54 -11 c-7 -2 -21 -2 -30 0 -10 3 -4 5 12 5 17 0 24 -2 18 -5z m110 0 c-7 -2 -19 -2 -25 0 -7 3 -2 5 12 5 14 0 19 -2 13 -5z m-66 -70 c-3 -10 -5 -4 -5 12 0 17 2 24 5 18 2 -7 2 -21 0 -30z m-57 23 c0 -2 -11 -6 -25 -8 -13 -3 -22 -1 -19 3 5 9 44 13 44 5z m159 -10 c8 -10 9 -16 1 -21 -5 -3 -10 1 -10 9 0 8 -10 17 -22 19 -22 4 -22 4 -2 6 12 0 27 -5 33 -13z m-142 -58 c-3 -8 -6 -5 -6 6 -1 11 2 17 5 13 3 -3 4 -12 1 -19z m-130 -38 c3 -10 2 -11 -4 -4 -4 7 -17 14 -28 17 -16 5 -15 5 4 4 14 -1 26 -9 28 -17z m177 -13 c-3 -9 -13 -17 -21 -17 -8 0 -12 3 -10 8 2 4 7 16 11 26 4 13 10 16 17 9 5 -5 7 -17 3 -26z m66 26 c0 -5 -8 -17 -17 -28 -14 -18 -15 -18 -9 -2 3 10 6 23 6 28 0 5 5 9 10 9 6 0 10 -3 10 -7z m-122 -39 c-4 -3 -12 5 -18 18 -12 22 -12 22 6 6 10 -10 15 -20 12 -24z m-128 -44 c0 -5 -9 -10 -19 -10 -11 0 -23 -4 -26 -10 -3 -5 -24 -10 -46 -10 -61 0 -44 24 22 31 30 3 57 6 62 7 4 1 7 -2 7 -8z m223 -15 c-7 -20 -94 -17 -101 3 -3 8 12 12 52 12 46 0 54 -3 49 -15z m-348 -35 c49 -7 49 -7 -25 -9 -41 0 -82 4 -90 9 -18 12 40 12 115 0z m245 -40 c0 -16 -4 -32 -10 -35 -6 -4 -10 10 -10 35 0 25 4 39 10 35 6 -3 10 -19 10 -35z m93 -87 c4 -71 7 -165 7 -210 l0 -83 -45 0 -45 0 0 83 c0 45 3 139 7 210 l6 127 32 0 32 0 6 -127z m302 91 c-23 -23 -32 -8 -9 17 10 11 20 16 22 10 2 -6 -4 -18 -13 -27z m-85 11 c0 -8 -10 -19 -21 -26 -22 -11 -21 -3 4 29 12 16 17 15 17 -3z m-350 -45 c0 -32 -1 -33 -24 -24 -12 5 -13 10 -4 30 15 33 28 30 28 -6z m260 9 c0 -18 -2 -19 -15 -9 -15 12 -12 30 6 30 5 0 9 -10 9 -21z m320 -3 c0 -18 -14 -34 -26 -29 -8 3 -22 -1 -32 -8 -9 -7 -6 -1 7 14 21 23 51 37 51 23z m-160 -10 c0 -3 -4 -8 -10 -11 -5 -3 -10 -1 -10 4 0 6 5 11 10 11 6 0 10 -2 10 -4z m-612 -13 c-16 -2 -40 -2 -55 0 -16 2 -3 4 27 4 30 0 43 -2 28 -4z m469 -15 c-3 -8 -6 -5 -6 6 -1 11 2 17 5 13 3 -3 4 -12 1 -19z m103 4 c0 -13 -40 -52 -53 -52 -6 0 -1 7 11 16 12 8 22 22 22 30 0 8 5 14 10 14 6 0 10 -4 10 -8z m-460 -71 c0 -36 -4 -51 -16 -55 -14 -5 -16 -1 -10 25 3 17 6 42 6 55 0 13 5 24 10 24 6 0 10 -22 10 -49z m96 -7 c-3 -8 -15 -14 -26 -14 -11 0 -20 -5 -20 -12 0 -6 -3 -9 -6 -5 -4 3 5 20 20 37 14 17 27 37 27 43 1 7 4 2 6 -11 3 -13 2 -30 -1 -38z m-136 22 c0 -19 -4 -23 -20 -19 -23 6 -25 14 -8 31 18 18 28 14 28 -12z m-147 -103 c-8 -3 -11 -20 -8 -51 4 -34 3 -42 -4 -27 -5 11 -10 42 -10 70 -1 47 0 49 17 31 12 -13 14 -20 5 -23z m287 -19 l0 -57 -26 27 c-20 19 -37 26 -68 27 -35 0 -38 2 -18 9 12 5 22 14 22 19 0 7 49 25 83 30 4 1 7 -24 7 -55z m410 -18 c-1 -29 -2 -30 -15 -13 -7 11 -11 25 -8 33 3 8 -1 22 -8 32 -11 14 -9 13 9 -2 14 -12 22 -30 22 -50z m-201 24 c11 -24 11 -24 -3 -6 -9 11 -16 24 -16 30 0 12 5 7 19 -24z m69 -38 c3 -9 -2 -13 -14 -10 -9 1 -19 9 -22 16 -3 9 2 13 14 10 9 -1 19 -9 22 -16z m-330 -14 c21 -21 13 -28 -33 -28 -25 0 -45 5 -45 10 0 6 12 10 28 10 21 0 24 2 12 10 -12 8 -11 10 6 10 11 0 25 -5 32 -12z m42 -73 c0 -29 -17 -33 -36 -7 -19 25 -17 32 11 32 20 0 25 -5 25 -25z m-53 -28 c-6 -18 -27 -20 -27 -2 0 9 -9 19 -20 22 -11 3 -18 9 -15 13 7 12 67 -20 62 -33z m-80 7 c-3 -3 -12 -4 -19 -1 -8 3 -5 6 6 6 11 1 17 -2 13 -5z m293 -64 c0 -18 -7 -20 -75 -20 -68 0 -75 2 -75 20 0 18 7 20 75 20 68 0 75 -2 75 -20z m15 -60 c4 -6 -28 -10 -90 -10 -62 0 -94 4 -90 10 3 6 44 10 90 10 46 0 87 -4 90 -10z m63 -62 c-3 -23 -5 -23 -153 -23 -148 0 -150 0 -153 23 l-3 22 156 0 156 0 -3 -22z"/>
<path d="M2454 2408 c-16 -8 -23 -23 -28 -60 -8 -56 3 -78 39 -78 36 0 47 22 39 79 -8 58 -20 73 -50 59z m13 -40 c-3 -8 -6 -5 -6 6 -1 11 2 17 5 13 3 -3 4 -12 1 -19z m0 -60 c-3 -8 -6 -5 -6 6 -1 11 2 17 5 13 3 -3 4 -12 1 -19z"/>
<path d="M2613 2410 c-26 -10 -39 -73 -24 -113 11 -29 47 -37 69 -15 23 23 10 140 -16 137 -4 0 -17 -4 -29 -9z m27 -70 c0 -16 -4 -32 -10 -35 -6 -4 -10 10 -10 35 0 25 4 39 10 35 6 -3 10 -19 10 -35z"/>
<path d="M1676 3142 c-22 -24 -24 -31 -13 -40 9 -8 17 -8 23 -2 7 7 22 -2 44 -25 38 -39 45 -42 54 -19 4 10 -5 24 -24 41 -18 15 -30 34 -30 49 0 32 -20 30 -54 -4z"/>
<path d="M2735 3100 c-30 -30 -36 -43 -27 -52 8 -8 22 -2 56 28 24 21 45 45 45 52 2 25 -36 11 -74 -28z"/>
<path d="M2778 3064 l-57 -42 23 -21 c64 -60 170 25 108 87 -17 17 -20 16 -74 -24z m58 -20 c-3 -9 -6 -18 -6 -20 0 -2 -6 -4 -14 -4 -8 0 -16 -6 -19 -12 -2 -7 -8 -10 -12 -5 -9 8 32 57 48 57 5 0 6 -7 3 -16z"/>
<path d="M1610 3058 c-7 -19 -3 -28 27 -55 20 -18 42 -33 50 -33 7 0 13 -5 13 -11 0 -8 5 -8 15 1 19 16 19 30 -1 30 -8 0 -12 5 -9 10 4 6 15 8 26 5 13 -4 19 -2 19 9 0 9 -9 16 -20 16 -12 0 -25 10 -32 25 -15 34 -74 36 -88 3z m47 -20 c-3 -8 -6 -5 -6 6 -1 11 2 17 5 13 3 -3 4 -12 1 -19z"/>
<path d="M1565 2989 c-9 -13 -8 -14 58 -48 44 -22 59 -26 67 -16 13 15 -10 37 -64 59 -45 19 -53 20 -61 5z"/>
<path d="M2844 2981 c-46 -21 -61 -38 -47 -52 10 -10 83 18 83 32 0 4 9 9 20 12 25 6 27 27 3 27 -10 0 -37 -9 -59 -19z"/>
<path d="M1537 2945 c-4 -8 5 -23 21 -36 l27 -22 -32 5 c-22 3 -34 0 -38 -10 -3 -8 -4 -16 -3 -18 2 -1 36 -6 76 -10 73 -7 74 -6 70 16 -1 13 -12 28 -23 34 -11 6 -23 15 -26 19 -5 7 -57 37 -64 37 -2 0 -5 -7 -8 -15z"/>
<path d="M2877 2920 c-11 -28 -37 -42 -37 -20 0 6 -7 10 -15 10 -18 0 -20 -31 -3 -48 23 -23 58 -14 69 18 11 31 23 38 34 20 9 -15 35 -12 35 3 0 19 -33 47 -54 47 -11 0 -22 -12 -29 -30z"/>
<path d="M2885 2759 c-37 -38 -38 -41 -20 -51 10 -6 29 -22 42 -36 25 -27 52 -24 60 6 2 10 14 22 25 27 26 12 36 35 15 35 -9 0 -28 14 -44 30 -15 17 -30 30 -33 30 -3 0 -23 -18 -45 -41z m55 -40 c0 -5 -4 -9 -10 -9 -5 0 -10 7 -10 16 0 8 5 12 10 9 6 -3 10 -10 10 -16z"/>
<path d="M1534 2771 c-11 -10 -30 -22 -42 -25 -12 -4 -22 -13 -21 -19 1 -22 15 -48 24 -48 6 0 10 -7 10 -16 0 -9 8 -21 18 -27 15 -9 22 -7 37 12 10 12 24 22 32 22 8 0 22 6 32 13 16 12 16 14 -3 31 -12 11 -21 25 -21 33 0 7 -7 13 -15 13 -8 0 -15 7 -15 15 0 20 -12 19 -36 -4z m26 -61 c0 -5 -7 -10 -16 -10 -8 0 -12 5 -9 10 3 6 10 10 16 10 5 0 9 -4 9 -10z"/>
<path d="M1580 2580 c0 -5 -12 -10 -27 -10 -44 0 -73 -11 -73 -28 0 -12 11 -14 61 -9 52 4 60 3 57 -11 -2 -12 -19 -20 -56 -26 -29 -5 -52 -14 -52 -21 0 -19 12 -26 26 -14 15 12 44 6 44 -10 0 -5 -11 -12 -25 -15 -14 -4 -25 -13 -25 -21 0 -17 35 -21 45 -5 8 12 42 13 49 1 3 -4 -14 -14 -37 -21 -23 -8 -44 -15 -45 -16 -2 -1 2 -19 9 -38 15 -41 39 -48 39 -11 0 25 23 35 35 15 3 -5 13 -10 22 -10 12 0 13 3 4 14 -8 10 -8 16 3 25 11 9 15 7 19 -9 3 -14 10 -18 21 -14 11 4 13 10 8 18 -5 6 -15 28 -21 49 -10 28 -18 37 -36 37 -12 0 -28 7 -35 15 -11 13 -8 15 13 15 30 0 44 17 28 33 -6 6 -11 26 -11 44 0 26 -4 33 -20 33 -11 0 -20 -4 -20 -10z"/>
<path d="M2970 2579 c0 -8 -17 -10 -50 -7 -44 4 -50 3 -50 -13 0 -14 8 -19 28 -20 27 -2 27 -2 2 -6 -51 -10 -66 -49 -33 -85 15 -17 15 -18 -8 -18 -32 0 -49 -17 -49 -50 0 -14 -5 -31 -11 -37 -8 -8 -5 -17 11 -33 l21 -21 -37 7 c-34 6 -36 5 -29 -15 3 -12 3 -21 -2 -20 -19 5 -43 -15 -43 -35 0 -17 -6 -22 -22 -22 -19 1 -23 -5 -26 -36 -3 -40 2 -44 55 -39 20 1 22 -2 17 -29 -4 -17 -2 -30 3 -30 17 0 43 36 43 58 0 15 6 22 18 22 23 0 42 19 42 42 0 24 -8 23 -29 -3 l-16 -20 -28 21 c-34 27 -35 46 -2 54 18 5 34 0 54 -15 29 -21 61 -20 61 2 0 6 -9 13 -20 16 -35 9 -22 24 15 17 39 -7 43 0 18 28 -15 17 -15 18 4 18 11 0 28 9 38 20 18 20 18 22 -4 60 l-22 39 28 3 c24 3 28 8 31 41 3 31 -1 39 -20 46 -22 10 -22 10 5 10 20 1 30 8 37 27 13 34 13 34 -10 34 -11 0 -20 -5 -20 -11z m-27 -98 c17 -6 17 -8 4 -20 -13 -10 -20 -9 -41 4 -14 10 -26 19 -26 21 0 6 44 3 63 -5z m-49 -91 c28 -10 36 -40 10 -40 -24 0 -54 19 -54 35 0 18 9 19 44 5z m-154 -215 c11 -13 8 -15 -15 -15 -23 0 -26 2 -15 15 7 8 14 15 15 15 1 0 8 -7 15 -15z"/>
<path d="M1678 2292 c-13 -10 -35 -23 -50 -30 -16 -6 -28 -17 -28 -24 0 -25 45 -77 70 -80 19 -2 25 -9 25 -27 0 -38 24 -37 40 3 9 20 21 36 28 36 8 0 8 -3 2 -8 -13 -9 -35 -58 -35 -79 0 -11 7 -14 24 -11 18 4 22 1 19 -13 -9 -34 19 -31 59 7 l41 39 -7 -29 c-4 -17 -15 -35 -23 -41 -10 -8 -14 -19 -9 -30 6 -17 7 -17 28 1 21 19 21 19 14 -8 -5 -24 -3 -28 14 -28 14 0 20 7 20 24 0 15 7 26 19 29 15 3 17 0 13 -17 -3 -11 -9 -26 -14 -33 -10 -12 26 -43 49 -43 20 0 15 38 -4 43 -14 4 -13 5 4 6 28 1 38 18 23 36 -10 12 -9 15 10 15 20 0 22 -3 15 -37 -3 -21 -11 -42 -16 -47 -15 -16 -10 -26 11 -26 11 0 20 7 20 15 0 27 29 16 32 -12 4 -39 38 -44 39 -6 l1 28 11 -27 c7 -17 21 -29 39 -33 34 -8 48 0 48 27 0 16 -3 18 -14 9 -18 -15 -39 9 -34 41 2 18 10 23 36 25 l34 1 -4 -54 -3 -54 33 0 c36 0 45 24 12 33 -11 3 -20 10 -20 16 0 6 9 11 20 11 11 0 20 7 20 15 0 8 -9 15 -20 15 -11 0 -20 5 -20 10 0 14 39 12 54 -3 8 -7 17 -28 21 -46 6 -30 29 -51 41 -38 4 3 9 30 13 59 7 62 23 66 34 9 6 -31 13 -41 27 -41 17 0 19 5 13 33 -3 17 -10 36 -14 42 -5 5 -9 17 -9 27 0 11 -7 18 -19 18 -37 0 -51 -12 -51 -41 0 -36 -15 -38 -27 -2 -9 26 -12 27 -89 28 -43 1 -85 -3 -92 -8 -9 -7 -16 -5 -25 6 -14 19 -33 11 -40 -18 -4 -16 -5 -15 -6 6 -1 30 -25 56 -36 39 -4 -7 -15 -3 -31 9 -14 11 -31 18 -38 15 -7 -3 -28 9 -45 26 -33 30 -64 39 -76 20 -3 -5 -12 -10 -18 -10 -7 0 -4 7 6 14 9 7 17 18 17 24 0 15 -32 24 -44 12 -5 -5 -15 -10 -20 -10 -6 0 -3 5 7 11 18 11 24 39 7 39 -5 0 -18 9 -28 20 -18 20 -18 20 -61 -1 -71 -34 -104 2 -34 38 20 11 38 24 40 30 7 19 -25 22 -49 5z"/>
<path d="M2580 2115 c-10 -12 -10 -22 0 -47 7 -18 20 -38 27 -45 12 -10 11 -13 -6 -23 -17 -9 -21 -8 -21 5 0 8 -4 15 -8 15 -4 0 -13 14 -19 30 -8 20 -18 30 -32 30 -27 0 -28 -29 -1 -63 25 -32 25 -47 1 -47 -13 0 -21 9 -26 30 -4 17 -11 30 -16 30 -5 0 -9 7 -9 15 0 8 -7 15 -16 15 -11 0 -14 -5 -9 -17 3 -10 11 -39 17 -65 15 -61 30 -62 138 -6 77 40 104 70 59 65 -12 -1 -24 4 -26 11 -3 6 2 12 11 12 9 0 16 5 16 10 0 6 -11 10 -25 10 -25 0 -33 14 -15 25 13 8 3 25 -14 25 -8 0 -19 -7 -26 -15z"/>
<path d="M2054 1711 c3 -5 -10 -11 -29 -13 -19 -2 -35 0 -35 4 0 4 -9 8 -21 8 -11 0 -18 -4 -14 -9 3 -6 -21 -13 -55 -17 -33 -4 -60 -11 -60 -16 0 -5 -6 -8 -12 -7 -39 5 -38 7 -36 -263 l3 -263 45 1 c47 2 100 6 232 19 64 6 82 5 102 -9 31 -20 107 -21 161 -1 41 14 156 20 168 9 4 -4 26 -8 49 -9 24 -2 71 -6 106 -10 l62 -8 0 267 0 266 -26 0 c-14 0 -23 4 -20 9 3 4 -22 11 -57 14 -34 3 -63 10 -65 16 -2 7 -23 9 -58 5 -37 -5 -54 -3 -54 5 0 6 -17 11 -40 11 -23 0 -40 -5 -40 -11 0 -8 -12 -10 -35 -6 -20 3 -35 2 -35 -4 0 -6 -4 -8 -9 -5 -5 3 -12 -1 -15 -9 -5 -13 -9 -13 -28 -3 -13 7 -25 15 -28 18 -3 3 -30 6 -60 7 -30 1 -65 5 -78 8 -14 3 -21 2 -18 -4z m90 -30 c3 -5 14 -7 24 -4 10 2 30 -6 45 -19 l27 -24 0 -212 c0 -135 -4 -212 -10 -212 -5 0 -10 4 -10 8 0 5 -6 9 -12 10 -52 8 -258 1 -258 -8 0 -3 -27 -6 -60 -6 l-60 -2 0 213 c0 212 0 213 23 219 12 3 33 6 48 6 14 0 30 5 37 12 6 6 32 11 57 12 25 1 45 4 45 9 0 10 98 9 104 -2z m299 2 c4 -3 32 -7 63 -9 31 -1 61 -7 67 -13 6 -6 30 -11 54 -11 l43 0 0 -215 c0 -165 -3 -215 -12 -216 -60 -6 -107 -5 -102 2 3 5 -30 10 -73 11 -129 4 -185 0 -193 -12 -13 -21 -20 62 -20 243 0 130 3 182 13 191 26 25 143 47 160 29z m-260 -476 c39 -17 63 -42 47 -52 -5 -3 -10 -2 -10 3 0 10 9 9 -147 15 -68 3 -123 2 -123 -2 0 -4 -14 -6 -30 -3 -17 2 -37 -1 -45 -8 -13 -11 -20 -10 -40 0 -14 7 -25 16 -25 20 0 4 44 10 98 14 112 8 174 15 181 21 9 10 63 5 94 -8z m312 -2 c55 -8 121 -15 148 -15 48 0 54 -4 37 -30 -7 -11 -10 -11 -10 -2 0 14 -26 15 -263 15 -133 0 -157 9 -86 34 44 15 55 15 174 -2z"/>
<path d="M1915 1541 c-3 -6 -3 -11 2 -11 4 0 1 -5 -7 -10 -13 -8 -13 -10 2 -10 22 0 31 -46 20 -97 -8 -36 -7 -42 9 -46 45 -12 66 9 44 43 -6 8 -12 42 -15 75 -4 52 -8 60 -27 63 -11 2 -24 -2 -28 -7z"/>
<path d="M2100 1540 c0 -5 5 -10 10 -10 6 0 10 -13 10 -30 0 -19 -5 -30 -14 -30 -16 0 -31 34 -21 50 3 6 -4 10 -18 10 -21 0 -24 -4 -19 -27 2 -16 9 -34 15 -40 7 -9 5 -13 -6 -13 -14 0 -27 -28 -27 -60 0 -18 44 -40 60 -30 9 6 9 12 -1 27 -14 24 -6 53 15 53 9 0 16 -12 18 -32 2 -22 9 -34 21 -36 16 -3 17 1 11 35 -4 21 -11 40 -16 41 -5 2 -3 10 3 18 7 8 13 31 14 49 1 32 -1 35 -27 35 -15 0 -28 -4 -28 -10z"/>
<path d="M2360 1542 c-18 -5 -25 -14 -25 -32 0 -14 6 -29 13 -33 18 -12 15 -40 -3 -33 -13 5 -15 -2 -13 -34 1 -32 6 -40 26 -45 29 -7 40 1 24 17 -13 13 -16 50 -6 61 4 3 15 2 26 -4 15 -8 19 -18 16 -40 -4 -24 -1 -29 16 -29 18 0 21 7 23 40 1 28 -3 40 -13 40 -8 0 -14 5 -14 10 0 6 6 10 13 10 10 0 12 10 8 38 -6 33 -10 37 -36 39 -17 0 -41 -2 -55 -5z m47 -14 c15 -21 13 -58 -3 -58 -8 0 -14 5 -14 11 0 5 -4 7 -10 4 -11 -7 -13 15 -4 39 7 19 18 20 31 4z"/>
<path d="M2511 1531 c-8 -14 -7 -20 4 -25 21 -8 21 -94 0 -102 -19 -8 -20 -34 -1 -34 8 0 21 -3 29 -6 20 -7 53 26 36 37 -14 8 -15 11 -17 97 -2 44 -5 52 -22 52 -10 0 -24 -9 -29 -19z"/>
<path d="M4420 3343 l1 -78 19 36 c24 45 59 59 151 59 l69 0 0 -338 c0 -380 3 -366 -74 -379 -21 -3 -36 -11 -36 -19 0 -11 34 -14 180 -14 146 0 180 3 180 14 0 8 -16 15 -41 19 -76 10 -74 -3 -77 377 l-3 340 76 0 c95 0 130 -17 156 -73 10 -23 19 -50 19 -59 0 -11 8 -18 20 -18 18 0 20 7 20 83 0 45 -3 92 -6 105 l-6 22 -324 0 -324 0 0 -77z"/>
<path d="M5120 3405 c0 -8 9 -15 21 -15 23 0 60 -18 71 -34 4 -6 8 -160 8 -343 0 -367 2 -356 -65 -369 -20 -3 -35 -12 -35 -20 0 -11 32 -14 170 -14 137 0 170 3 170 14 0 8 -16 16 -39 20 -62 10 -66 20 -69 193 l-4 153 187 0 187 0 -4 -147 c-3 -82 -8 -156 -13 -166 -4 -10 -27 -23 -51 -29 -24 -7 -44 -18 -44 -25 0 -10 38 -13 170 -13 138 0 170 3 170 14 0 8 -15 17 -35 20 -67 13 -65 2 -65 369 0 183 4 337 8 343 11 16 48 34 71 34 12 0 21 7 21 15 0 13 -26 15 -170 15 -133 0 -170 -3 -170 -13 0 -7 19 -17 43 -23 37 -8 43 -14 55 -48 8 -26 12 -82 10 -160 l-3 -121 -180 0 -180 0 0 146 c0 165 4 175 66 185 23 4 39 12 39 20 0 11 -33 14 -170 14 -144 0 -170 -2 -170 -15z"/>
<path d="M5990 3406 c0 -8 16 -16 39 -20 67 -10 66 -2 66 -371 0 -259 -3 -335 -13 -348 -7 -8 -31 -18 -53 -22 -24 -4 -39 -12 -39 -21 0 -12 53 -14 333 -14 l332 0 24 93 c13 50 26 98 29 105 2 7 -4 12 -15 12 -12 0 -32 -20 -53 -52 -19 -29 -49 -61 -67 -71 -44 -25 -201 -43 -278 -31 l-60 9 -3 168 -2 167 102 0 c57 0 120 -5 140 -10 33 -9 40 -17 55 -60 12 -34 23 -50 35 -50 16 0 18 13 18 145 0 137 -1 145 -20 145 -14 0 -21 -9 -25 -32 -14 -73 -49 -88 -203 -88 l-103 0 3 153 3 152 147 0 c169 0 192 -9 216 -83 10 -30 19 -42 33 -42 21 0 22 8 12 113 l-6 67 -323 0 c-268 0 -324 -2 -324 -14z"/>
<path d="M7177 3203 c-4 -3 -7 -21 -7 -39 0 -37 -7 -34 120 -53 154 -23 217 -78 239 -206 15 -86 15 -2119 0 -2200 -13 -71 -39 -125 -70 -144 -40 -24 -127 -50 -209 -62 l-80 -11 0 -39 0 -39 1137 2 1138 3 33 120 c18 66 62 224 97 351 36 127 65 236 65 242 0 8 -18 12 -49 12 l-49 0 -42 -78 c-132 -243 -253 -367 -410 -416 -152 -48 -282 -60 -665 -61 -384 0 -392 1 -432 62 -17 25 -18 95 -21 1083 -3 1068 0 1186 34 1252 39 79 118 120 253 134 101 10 101 10 101 54 l0 40 -588 0 c-324 0 -592 -3 -595 -7z"/>
<path d="M23220 2986 c0 -8 14 -28 30 -44 17 -17 30 -40 30 -51 0 -11 -18 -61 -40 -111 -22 -50 -40 -93 -40 -95 0 -3 11 -5 24 -5 17 0 27 7 32 23 3 12 15 46 26 75 20 53 20 53 33 29 7 -14 20 -48 30 -76 14 -43 21 -51 41 -51 l24 0 -21 53 c-11 28 -31 81 -45 115 -36 92 -61 139 -79 146 -27 10 -45 7 -45 -8z"/>
<path d="M20118 2886 c-16 -8 -28 -11 -28 -5 0 5 -9 9 -20 9 -19 0 -20 -7 -20 -105 0 -98 1 -105 20 -105 18 0 20 7 20 54 0 73 16 115 48 123 19 4 30 1 44 -17 15 -19 18 -41 18 -136 0 -107 1 -114 20 -114 19 0 20 7 20 130 0 126 -1 132 -25 155 -27 28 -58 31 -97 11z"/>
<path d="M20458 2884 c-47 -25 -58 -61 -58 -184 0 -103 1 -110 20 -110 18 0 20 7 20 55 0 52 1 55 19 45 36 -19 86 -12 114 16 49 49 47 125 -5 169 -33 28 -70 31 -110 9z m86 -46 c22 -31 20 -84 -4 -108 -27 -27 -52 -25 -79 4 -19 20 -22 31 -16 58 14 66 68 91 99 46z"/>
<path d="M21288 2886 c-16 -8 -28 -11 -28 -5 0 5 -9 9 -20 9 -19 0 -20 -7 -20 -105 0 -98 1 -105 20 -105 18 0 20 7 20 54 0 73 16 115 48 123 19 4 30 1 44 -17 15 -19 18 -41 18 -136 0 -107 1 -114 20 -114 19 0 20 7 20 130 0 126 -1 132 -25 155 -27 28 -58 31 -97 11z"/>
<path d="M21818 2883 c-34 -21 -48 -53 -48 -109 0 -34 6 -51 25 -69 29 -30 89 -34 117 -9 16 16 18 16 24 0 8 -20 54 -22 54 -2 0 8 -4 18 -10 21 -5 3 -10 44 -10 91 0 77 -2 84 -20 84 -11 0 -20 -5 -20 -11 0 -5 -10 -3 -22 5 -29 20 -56 20 -90 -1z m85 -40 c49 -56 0 -157 -58 -119 -28 18 -39 48 -31 81 13 51 59 71 89 38z"/>
<path d="M22454 2884 c-62 -30 -75 -125 -25 -175 24 -24 38 -29 76 -29 64 0 105 39 105 100 0 53 -25 96 -63 110 -40 13 -56 12 -93 -6z m88 -41 c39 -45 23 -116 -29 -129 -40 -10 -77 36 -69 85 9 57 65 82 98 44z"/>
<path d="M23008 2883 c-34 -21 -48 -53 -48 -109 0 -34 6 -51 25 -69 29 -30 89 -34 117 -9 16 16 18 16 24 0 8 -20 54 -22 54 -2 0 8 -4 18 -10 21 -5 3 -10 44 -10 91 0 77 -2 84 -20 84 -11 0 -20 -5 -20 -11 0 -5 -10 -3 -22 5 -29 20 -56 20 -90 -1z m85 -40 c49 -56 0 -157 -58 -119 -28 18 -39 48 -31 81 13 51 59 71 89 38z"/>
<path d="M23484 2884 c-62 -30 -75 -125 -25 -175 24 -24 38 -29 76 -29 64 0 105 39 105 100 0 53 -25 96 -63 110 -40 13 -56 12 -93 -6z m88 -41 c39 -45 23 -116 -29 -129 -40 -10 -77 36 -69 85 9 57 65 82 98 44z"/>
<path d="M20669 2874 c-7 -9 -15 -44 -17 -78 -3 -51 0 -65 18 -88 25 -32 79 -39 100 -13 12 14 15 14 30 0 26 -24 79 -16 102 16 44 59 27 179 -26 179 -24 0 -24 -1 -10 -27 20 -40 18 -116 -4 -136 -29 -26 -51 -3 -54 58 -2 38 -7 51 -20 53 -15 3 -18 -4 -18 -41 0 -29 -7 -53 -18 -67 l-19 -23 -21 21 c-26 26 -29 83 -7 126 19 36 19 36 -4 36 -10 0 -25 -7 -32 -16z"/>
<path d="M20972 2743 c3 -142 4 -148 24 -151 20 -3 21 1 16 46 l-4 48 35 -4 c19 -2 45 2 58 8 17 10 24 10 27 1 5 -16 52 -14 52 3 0 8 -4 18 -10 21 -5 3 -10 44 -10 91 0 76 -2 84 -19 84 -16 0 -19 -10 -23 -71 -3 -60 -8 -74 -27 -90 -28 -23 -32 -23 -55 -6 -15 11 -20 31 -24 90 -4 67 -7 77 -24 77 -17 0 -18 -8 -16 -147z"/>
<path d="M21570 2785 c0 -98 1 -105 20 -105 17 0 20 7 20 45 0 33 4 45 15 45 7 0 31 -20 52 -45 24 -29 45 -45 60 -45 33 0 29 11 -25 69 l-49 52 51 44 51 45 -30 0 c-23 0 -41 -10 -70 -40 -21 -22 -43 -40 -47 -40 -4 0 -8 18 -8 40 0 33 -3 40 -20 40 -19 0 -20 -7 -20 -105z"/>
<path d="M22030 2801 c0 -106 5 -121 35 -121 29 0 43 19 24 31 -10 6 -15 35 -18 94 -3 76 -5 85 -22 85 -17 0 -19 -8 -19 -89z"/>
<path d="M22200 2872 c0 -15 6 -17 35 -14 l35 4 0 -72 c0 -87 10 -110 50 -110 35 0 40 19 10 38 -17 10 -20 23 -20 77 l0 65 35 0 c24 0 35 5 35 15 0 12 -17 15 -90 15 -80 0 -90 -2 -90 -18z"/>
<path d="M22760 2785 c0 -98 1 -105 20 -105 17 0 20 7 20 45 0 33 4 45 15 45 7 0 31 -20 52 -45 24 -29 45 -45 60 -45 33 0 29 11 -25 69 l-49 52 51 44 51 45 -30 0 c-23 0 -41 -10 -70 -40 -21 -22 -43 -40 -47 -40 -4 0 -8 18 -8 40 0 33 -3 40 -20 40 -19 0 -20 -7 -20 -105z"/>
<path d="M23650 2887 c0 -2 18 -48 39 -103 34 -85 43 -99 62 -99 30 0 89 101 97 163 4 38 2 42 -17 42 -15 0 -21 -6 -21 -22 0 -13 -12 -49 -28 -81 l-27 -58 -29 80 c-25 71 -31 81 -52 81 -13 0 -24 -1 -24 -3z"/>
<path d="M4420 2525 c0 -13 171 -15 1502 -13 1190 2 1502 6 1506 16 3 9 -302 12 -1502 12 -1333 0 -1506 -2 -1506 -15z"/>
<path d="M8140 2525 c0 -13 973 -15 8695 -15 7722 0 8695 2 8695 15 0 13 -973 15 -8695 15 -7722 0 -8695 -2 -8695 -15z"/>
<path d="M10521 1917 c-533 -1258 -559 -1316 -625 -1382 -30 -29 -58 -46 -96 -56 -47 -14 -55 -19 -55 -40 l0 -24 293 -3 292 -2 0 30 c0 27 -3 30 -31 30 -60 0 -119 22 -145 53 -41 48 -31 107 57 333 l74 189 390 2 390 3 76 -183 c84 -200 105 -269 94 -323 -8 -43 -40 -59 -136 -71 -59 -7 -64 -10 -64 -33 l0 -25 378 -3 378 -2 -3 27 c-3 23 -10 29 -48 38 -80 21 -107 41 -149 113 -21 37 -211 460 -422 940 l-383 872 -30 0 -31 0 -204 -483z m334 -352 l164 -390 -170 -3 c-93 -1 -245 -1 -338 0 l-169 3 166 403 c107 257 170 398 175 390 5 -7 82 -188 172 -403z"/>
<path d="M21240 2393 c-241 -38 -413 -123 -570 -282 -134 -134 -221 -292 -267 -482 -28 -115 -25 -424 4 -536 84 -315 297 -557 585 -662 201 -74 462 -86 663 -31 173 47 387 179 484 300 l34 42 -26 26 -26 25 -47 -39 c-104 -88 -163 -128 -249 -169 -137 -67 -196 -79 -365 -80 -125 0 -155 3 -220 24 -188 59 -352 209 -437 399 -93 210 -108 537 -38 801 73 273 261 477 493 536 88 22 247 22 332 0 204 -53 346 -189 439 -421 39 -95 41 -99 73 -102 l33 -3 -12 268 c-6 147 -12 296 -12 331 l-1 62 -33 0 c-26 0 -36 -6 -45 -25 -16 -34 -69 -65 -112 -65 -19 0 -83 13 -141 30 -159 44 -268 60 -398 59 -64 -1 -127 -3 -141 -6z"/>
<path d="M11614 2355 c-11 -26 3 -42 43 -48 21 -4 59 -19 84 -35 76 -48 123 -154 374 -837 81 -220 198 -546 260 -725 103 -298 115 -325 136 -328 23 -3 33 22 249 617 124 341 228 617 232 613 11 -10 332 -843 398 -1032 32 -91 61 -173 65 -182 4 -10 17 -18 30 -18 21 0 30 23 117 288 133 400 526 1489 555 1534 29 47 87 86 150 102 41 10 48 16 48 37 l0 24 -292 3 -293 2 0 -28 c0 -28 2 -29 55 -35 72 -7 115 -33 139 -81 18 -36 18 -43 4 -115 -14 -65 -390 -1112 -408 -1134 -3 -4 -109 259 -234 584 -235 609 -246 647 -215 698 19 29 80 51 144 51 54 0 55 0 55 30 l0 30 -396 0 -395 0 3 -27 c3 -26 7 -28 58 -34 75 -8 127 -34 161 -82 15 -21 62 -125 104 -231 l75 -192 -150 -400 c-83 -219 -153 -406 -156 -414 -5 -13 -7 -13 -14 1 -5 9 -107 270 -227 580 -233 607 -246 651 -204 696 24 25 79 43 134 43 34 0 37 2 37 30 l0 30 -360 0 c-311 0 -361 -2 -366 -15z"/>
<path d="M14424 2355 c-12 -29 5 -41 75 -53 99 -17 128 -34 154 -90 22 -47 22 -49 22 -812 0 -827 -1 -839 -53 -880 -26 -21 -80 -38 -152 -49 -40 -5 -45 -9 -45 -31 l0 -25 410 0 410 0 0 24 c0 23 -6 26 -80 38 -97 17 -134 37 -160 88 -19 38 -20 60 -20 395 l0 355 82 0 81 0 349 -450 349 -450 237 -3 237 -2 0 30 c0 25 -4 30 -23 30 -55 0 -121 34 -183 94 -35 34 -196 225 -358 425 l-296 365 88 22 c166 41 258 89 341 180 65 71 92 142 98 259 15 261 -113 429 -388 508 -131 38 -266 47 -736 47 -376 0 -434 -2 -439 -15z m911 -115 c100 -17 166 -49 231 -114 71 -72 93 -123 101 -241 13 -188 -72 -330 -234 -394 -67 -26 -189 -49 -304 -56 -52 -3 -106 -8 -121 -10 l-28 -4 0 384 c0 269 3 392 12 409 11 26 27 31 108 39 46 5 172 -3 235 -13z"/>
<path d="M16400 2342 c0 -26 3 -28 68 -38 100 -16 141 -39 166 -93 21 -46 21 -53 21 -821 l0 -775 -22 -48 c-26 -55 -59 -73 -165 -91 -65 -10 -68 -12 -68 -38 l0 -28 797 2 798 3 32 120 c18 66 48 177 67 248 l34 127 -42 0 c-41 0 -42 -1 -73 -62 -42 -86 -114 -182 -164 -218 -108 -78 -258 -103 -589 -98 -251 3 -273 7 -290 54 -6 15 -10 191 -10 410 l0 386 298 -4 c294 -3 298 -3 347 -28 58 -29 80 -63 111 -170 21 -74 22 -75 58 -78 l36 -3 0 341 0 341 -36 -3 c-36 -3 -36 -3 -55 -77 -26 -103 -58 -154 -111 -177 -38 -17 -76 -19 -345 -22 l-303 -3 0 358 c0 197 4 364 9 371 15 24 83 32 276 31 238 0 420 -13 485 -34 69 -23 114 -77 145 -178 14 -43 25 -85 25 -93 0 -11 9 -14 38 -12 l37 3 0 48 c-1 26 -2 121 -3 212 l-2 165 -785 0 -785 0 0 -28z"/>
<path d="M18202 2343 c3 -26 7 -29 60 -35 75 -9 109 -28 174 -96 l55 -57 -4 -750 c-2 -568 -6 -759 -16 -788 -27 -82 -89 -124 -216 -144 -45 -8 -50 -11 -53 -36 l-3 -27 351 0 351 0 -3 27 c-3 24 -9 28 -68 40 -120 24 -155 51 -187 146 -16 47 -18 116 -21 712 -3 648 -2 660 16 640 15 -16 696 -860 1196 -1482 76 -96 94 -113 118 -113 l28 0 0 848 c0 897 2 928 47 991 26 36 113 78 178 86 52 7 55 9 55 36 l0 29 -345 0 -345 0 0 -28 c0 -27 3 -29 73 -40 97 -17 132 -40 163 -105 38 -85 45 -203 42 -751 l-3 -498 -568 711 -569 711 -255 0 -254 0 3 -27z"/>
<path d="M22310 2342 c0 -26 3 -28 68 -38 100 -16 141 -39 166 -93 21 -45 21 -57 24 -775 3 -719 -1 -822 -30 -883 -17 -36 -73 -63 -159 -77 -66 -10 -69 -12 -69 -38 l0 -28 798 2 797 3 33 120 c18 66 48 177 66 248 l34 127 -41 0 c-42 0 -42 0 -79 -73 -134 -259 -264 -312 -748 -305 -251 3 -273 7 -290 54 -6 15 -10 191 -10 410 l0 386 298 -4 c294 -3 298 -3 347 -28 58 -29 89 -76 115 -179 17 -65 18 -66 54 -69 l36 -3 0 340 0 341 -35 0 c-32 0 -35 -3 -45 -42 -35 -134 -61 -183 -115 -212 -38 -20 -55 -21 -347 -24 l-308 -3 0 348 c0 191 3 358 6 370 3 12 13 25 22 29 28 13 391 16 548 5 180 -12 231 -28 279 -84 32 -38 85 -170 85 -213 0 -11 9 -14 38 -12 l37 3 0 58 c-1 31 -2 127 -3 212 l-2 155 -785 0 -785 0 0 -28z"/>
</g>
</svg>